<svg xmlns="http://www.w3.org/2000/svg" xmlns:xlink="http://www.w3.org/1999/xlink" width="500" zoomAndPan="magnify" viewBox="0 0 375 374.999991" height="500" preserveAspectRatio="xMidYMid meet" version="1.0"><defs><g/></defs><g fill="#000000" fill-opacity="1"><g transform="translate(145.810542, 174.749989)"><g><path d="M 21.109375 -3.96875 L 1.71875 -12.515625 L 1.71875 -15.3125 L 21.109375 -25 L 21.109375 -20.3125 L 7.75 -14.125 L 21.109375 -8.640625 Z M 21.109375 -3.96875 "/></g></g></g><g fill="#000000" fill-opacity="1"><g transform="translate(168.640348, 174.749989)"><g><path d="M 15.6875 0 L 8.8125 -22.40625 L 8.640625 -22.40625 C 8.878906 -17.84375 9 -14.800781 9 -13.28125 L 9 0 L 3.59375 0 L 3.59375 -28.5625 L 11.84375 -28.5625 L 18.59375 -6.71875 L 18.71875 -6.71875 L 25.875 -28.5625 L 34.125 -28.5625 L 34.125 0 L 28.484375 0 L 28.484375 -13.515625 C 28.484375 -14.148438 28.488281 -14.882812 28.5 -15.71875 C 28.519531 -16.550781 28.609375 -18.765625 28.765625 -22.359375 L 28.59375 -22.359375 L 21.234375 0 Z M 15.6875 0 "/></g></g></g><g fill="#000000" fill-opacity="1"><g transform="translate(206.351512, 174.749989)"><g><path d="M 1.71875 -8.640625 L 15.078125 -14.125 L 1.71875 -20.3125 L 1.71875 -25 L 21.109375 -15.3125 L 21.109375 -12.515625 L 1.71875 -3.96875 Z M 1.71875 -8.640625 "/></g></g></g><g fill="#000000" fill-opacity="1"><g transform="translate(137.548824, 230.249985)"><g><path d="M 21.109375 -3.96875 L 1.71875 -12.515625 L 1.71875 -15.3125 L 21.109375 -25 L 21.109375 -20.3125 L 7.75 -14.125 L 21.109375 -8.640625 Z M 21.109375 -3.96875 "/></g></g></g><g fill="#000000" fill-opacity="1"><g transform="translate(160.37863, 230.249985)"><g><path d="M 16.328125 -28.5625 L 5.6875 0 L 0.28125 0 L 10.921875 -28.5625 Z M 16.328125 -28.5625 "/></g></g></g><g fill="#000000" fill-opacity="1"><g transform="translate(176.900453, 230.249985)"><g><path d="M 15.6875 0 L 8.8125 -22.40625 L 8.640625 -22.40625 C 8.878906 -17.84375 9 -14.800781 9 -13.28125 L 9 0 L 3.59375 0 L 3.59375 -28.5625 L 11.84375 -28.5625 L 18.59375 -6.71875 L 18.71875 -6.71875 L 25.875 -28.5625 L 34.125 -28.5625 L 34.125 0 L 28.484375 0 L 28.484375 -13.515625 C 28.484375 -14.148438 28.488281 -14.882812 28.5 -15.71875 C 28.519531 -16.550781 28.609375 -18.765625 28.765625 -22.359375 L 28.59375 -22.359375 L 21.234375 0 Z M 15.6875 0 "/></g></g></g><g fill="#000000" fill-opacity="1"><g transform="translate(214.611617, 230.249985)"><g><path d="M 1.71875 -8.640625 L 15.078125 -14.125 L 1.71875 -20.3125 L 1.71875 -25 L 21.109375 -15.3125 L 21.109375 -12.515625 L 1.71875 -3.96875 Z M 1.71875 -8.640625 "/></g></g></g></svg>